<svg xmlns="http://www.w3.org/2000/svg" xmlns:xlink="http://www.w3.org/1999/xlink" width="64" zoomAndPan="magnify" viewBox="0 0 48 48" height="64" preserveAspectRatio="xMidYMid meet" version="1.0"><defs><clipPath id="f59e3ca7a0"><path d="M 1.742188 11.65625 L 45.824219 11.65625 L 45.824219 35.167969 L 1.742188 35.167969 Z M 1.742188 11.65625 " clip-rule="nonzero"/></clipPath></defs><g clip-path="url(#f59e3ca7a0)"><path fill="#1d1c1a" d="M 29.550781 35.015625 C 23.667969 35.300781 15.84375 35.257812 10.109375 34.023438 C 8.234375 33.621094 6.535156 33.007812 4.90625 32.023438 C 0.796875 29.539062 1.074219 24.507812 3.546875 20.738281 C 4.769531 18.875 6.839844 16.847656 8.941406 16.0625 C 9.964844 15.683594 10.878906 15.125 11.859375 14.636719 C 12.171875 14.480469 12.28125 14.039062 12.609375 13.90625 C 14.4375 13.171875 16.304688 12.285156 18.320312 12.246094 L 22.042969 12.175781 C 22.707031 12.160156 23.328125 12.214844 23.847656 11.664062 C 24.828125 11.609375 32.121094 12.078125 32.210938 13.375 L 35.292969 14.441406 C 36.007812 14.6875 36.722656 14.699219 37.40625 15.050781 C 42.09375 17.460938 46.558594 21.9375 45.722656 27.679688 C 45.457031 29.5 44.332031 30.964844 42.816406 31.957031 C 39.429688 34.175781 33.589844 34.820312 29.550781 35.015625 Z M 10.859375 32.320312 C 13.484375 32.847656 16.058594 33.238281 18.753906 33.273438 L 25.351562 33.351562 C 29.992188 33.40625 37.625 32.917969 41.628906 30.597656 C 43.222656 29.675781 44.152344 28.09375 44.105469 26.246094 C 44.003906 22.300781 40.761719 18.800781 37.285156 17.054688 C 37.644531 19.605469 37.097656 21.851562 35.738281 23.847656 C 35.515625 24.179688 35.164062 24.3125 34.832031 24.234375 C 34.175781 24.074219 34.058594 23.210938 33.917969 22.449219 C 33.371094 19.472656 32.21875 16.769531 30.390625 14.332031 C 28.929688 13.902344 27.519531 13.585938 25.917969 13.605469 C 28.039062 16.664062 28.175781 20.625 27.160156 23.949219 C 27.03125 24.367188 26.652344 24.546875 26.316406 24.503906 C 26.046875 24.472656 25.734375 24.300781 25.582031 23.972656 C 23.710938 20.019531 21.839844 16.515625 18.101562 14.074219 C 16.847656 14.324219 15.71875 14.5625 14.539062 15.132812 C 17.015625 17.703125 18.046875 21.03125 17.476562 24.554688 C 17.40625 24.996094 17.089844 25.257812 16.753906 25.3125 C 16.449219 25.363281 16.179688 25.203125 15.957031 24.917969 C 14.050781 22.480469 11.667969 19.230469 8.617188 18.203125 C 5.484375 20.015625 2.054688 25.113281 4.066406 28.699219 C 5.285156 30.871094 8.53125 31.851562 10.859375 32.320312 Z M 25.957031 18.273438 C 25.699219 16.519531 24.972656 15.085938 23.847656 13.859375 C 22.863281 13.84375 21.976562 13.800781 21.003906 14.089844 C 23.128906 15.964844 24.671875 18.199219 25.882812 20.6875 C 26.109375 19.855469 25.933594 19.140625 25.957031 18.273438 Z M 35.066406 16.296875 C 34.433594 16.09375 34.019531 15.777344 33.347656 15.710938 C 34.308594 17.359375 34.828125 18.957031 35.363281 20.730469 C 35.914062 19.183594 35.789062 17.605469 35.066406 16.296875 Z M 15.757812 21.71875 C 15.765625 19.410156 14.484375 17.484375 12.871094 16.097656 C 12.101562 16.5625 11.429688 16.683594 10.84375 17.289062 C 12.824219 18.457031 14.179688 20.003906 15.757812 21.71875 Z M 15.757812 21.71875 " fill-opacity="1" fill-rule="nonzero"/></g></svg>